<svg xmlns="http://www.w3.org/2000/svg" xmlns:xlink="http://www.w3.org/1999/xlink" viewBox="0 0 1000 1000">
    <defs>
        <style>.cls-1{filter:url(#luminosity-invert);}.cls-2{mask:url(#mask);}.cls-3{fill:#3961e2;}.cls-4{fill:#dda294;}.cls-5{fill:#e8a26d;}.cls-6{fill:#eaac9b;}.cls-7{fill:#1d1d28;}.cls-8{fill:#f9f9f9;}.cls-9{fill:#d8849c;}</style>
    </defs>

    <g>
        <path class="cls-3" d="M850,1000H150c0-146.46,90.07-271.92,217.89-324l1.82-.74A350.05,350.05,0,0,1,850,1000Z"/>
        <ellipse class="cls-4" cx="352.17" cy="476.63" rx="46.32" ry="61.14"/>
        <path class="cls-5" d="M400,186.82a142.23,142.23,0,0,1,44.53,7.1A158.88,158.88,0,0,1,713,308.79c0,87.69-71.13,158.79-158.87,158.79a158.18,158.18,0,0,1-75.94-19.29A142.46,142.46,0,1,1,400,186.82Z"/>
        <path class="cls-4" d="M748.09,753.26A227.44,227.44,0,0,1,581.93,825.1C483.72,825.1,400,763,367.89,676l1.82-.74a349.83,349.83,0,0,1,378.38,78Z"/>
        <ellipse class="cls-4" cx="641.07" cy="476.63" rx="46.32" ry="61.14"/>
        <path class="cls-6" d="M500.07,686.17h0c-81.86,0-148.22-62.35-148.22-139.25l-10-178H658.29l-10,178C648.29,623.82,581.93,686.17,500.07,686.17Z"/>
        <path class="cls-5" d="M348.1,258a61.7,61.7,0,0,1,10.15.85,86.82,86.82,0,0,1,143.4-14.7,106.2,106.2,0,1,1-17.72,127,86.84,86.84,0,0,1-100.47-1.7A61.34,61.34,0,1,1,348.1,258Z"/>
        <ellipse class="cls-7" cx="552.94" cy="493.1" rx="18.12" ry="18.12"/>
        <ellipse class="cls-7" cx="448.88" cy="493.1" rx="18.12" ry="18.12"/>
        <rect class="cls-5" x="373.54" y="444.52" width="55.52" height="23.06" rx="11.53" transform="translate(-104.36 119.4) rotate(-15)"/>
        <rect class="cls-5" x="572.76" y="444.52" width="55.52" height="23.06" rx="11.53" transform="translate(138.5 -139.89) rotate(15)"/>
        <path class="cls-8" d="M476.32,534.7h47.48a11,11,0,0,1,11,11v20.58A34.75,34.75,0,0,1,500.06,601h0a34.75,34.75,0,0,1-34.75-34.75V545.71A11,11,0,0,1,476.32,534.7Z"/>
        <rect class="cls-9" x="384.78" y="522.53" width="48.23" height="27.33" rx="13.66"/>
        <rect class="cls-9" x="570.64" y="522.53" width="48.23" height="27.33" rx="13.66"/>
    </g>
</svg>